<svg width="624" height="587" viewBox="0 0 624 587" fill="none" xmlns="http://www.w3.org/2000/svg">
<rect x="160.62" y="3.61955" width="290.761" height="376.761" rx="145.38" fill="#F4D941" stroke="black" stroke-width="7.23909"/>
<ellipse cx="304.976" cy="142.234" rx="16.5688" ry="20.0921" transform="rotate(4.60801 304.976 142.234)" fill="#0F0B0C"/>
<path d="M235.291 82.3507C236.235 80.8399 239.937 77.9316 247.188 78.3848" stroke="black" stroke-width="4.82606" stroke-linecap="round"/>
<path d="M371.829 78.9495C373.27 78.6358 376.993 79.1064 380.357 83.4989" stroke="black" stroke-width="4.82606" stroke-linecap="round"/>
<ellipse cx="367.863" cy="116.853" rx="14.9816" ry="18.6287" transform="rotate(4.60801 367.863 116.853)" fill="#0F0B0C"/>
<path d="M376.362 112.378C377.149 106.082 371.074 103.313 368.43 102.747C364.804 105.466 365.786 110.301 366.731 112.378C369.941 115.022 375.795 116.91 376.362 112.378Z" fill="#A8CAE6"/>
<ellipse cx="363.629" cy="123.034" rx="2.25227" ry="3.39928" transform="rotate(42.1084 363.629 123.034)" fill="#A8CAE6"/>
<ellipse cx="244.356" cy="116.853" rx="14.9816" ry="18.6287" transform="rotate(4.60801 244.356 116.853)" fill="#0F0B0C"/>
<path d="M252.855 112.378C253.642 106.081 247.567 103.313 244.923 102.746C241.297 105.466 242.279 110.3 243.223 112.378C246.434 115.022 252.288 116.91 252.855 112.378Z" fill="#A8CAE6"/>
<ellipse cx="240.121" cy="123.034" rx="2.25227" ry="3.39928" transform="rotate(42.1084 240.121 123.034)" fill="#A8CAE6"/>
<path d="M303.277 145.804C297.385 145.351 294.779 149.77 294.212 152.036C294.968 153.924 297.385 157.815 301.011 158.268C304.637 158.721 307.432 156.568 308.376 155.435C309.131 152.414 309.169 146.257 303.277 145.804Z" fill="#E7A3BA"/>
<ellipse cx="399.023" cy="144.671" rx="19.2626" ry="13.5971" fill="#E7A3BA"/>
<ellipse cx="212.063" cy="144.671" rx="19.2626" ry="13.5971" fill="#E7A3BA"/>
<g filter="url(#filter0_d_40_94)">
<rect x="4" y="233" width="616" height="346" rx="85" fill="white"/>
<rect x="5.35432" y="234.354" width="613.291" height="343.291" rx="83.6457" stroke="#8A8A8A" stroke-width="2.70865"/>
</g>
<path d="M472.322 282.405V282.333C472.322 280.32 470.92 278.883 468.62 278.883C466.285 278.883 464.847 280.069 464.38 282.405H472.322ZM474.838 285.172H464.524C464.847 287.58 466.788 288.945 469.375 288.945C470.489 288.945 471.495 288.73 472.394 288.334C472.789 288.155 473.077 288.083 473.328 288.083C473.867 288.083 474.299 288.334 474.622 288.838C474.802 289.125 474.874 289.377 474.874 289.628C474.874 290.239 474.586 290.706 474.047 291.03C472.502 291.928 470.813 292.395 468.944 292.395C466.321 292.395 464.236 291.605 462.655 290.059C461.038 288.514 460.247 286.466 460.247 283.914C460.247 281.506 461.038 279.458 462.583 277.841C464.128 276.223 466.213 275.433 468.8 275.433C470.92 275.433 472.753 276.116 474.227 277.517C475.7 278.919 476.455 280.752 476.455 282.944V283.698C476.347 284.669 475.808 285.172 474.838 285.172Z" fill="black"/>
<path d="M456.665 268.856V289.988C456.665 291.245 456.018 292.288 454.617 292.288C453.431 292.288 452.568 291.497 452.533 290.311C451.275 291.641 449.729 292.288 447.897 292.288C445.597 292.288 443.764 291.533 442.362 290.023C440.961 288.55 440.278 286.573 440.278 284.094C440.278 281.542 441.104 279.458 442.758 277.841C444.411 276.223 446.531 275.433 449.154 275.433C450.52 275.433 451.634 275.684 452.533 276.223V268.856C452.533 267.742 453.431 266.844 454.617 266.844C455.767 266.844 456.665 267.742 456.665 268.856ZM452.533 286.789V280.284C451.49 279.638 450.448 279.314 449.334 279.314C446.747 279.314 444.698 281.075 444.698 283.95C444.698 286.717 446.459 288.442 448.759 288.442C450.161 288.442 451.418 287.903 452.533 286.789Z" fill="black"/>
<path d="M415.991 287.256C415.991 283.842 418.435 282.009 421.885 282.009C423.358 282.009 424.58 282.369 425.551 283.052V282.548C425.551 280.069 424.724 278.883 422.532 278.883C421.633 278.883 420.771 278.991 420.016 279.242C419.621 279.35 419.369 279.386 419.19 279.386C418.543 279.386 418.076 279.098 417.788 278.523C417.68 278.308 417.644 278.092 417.644 277.841C417.644 277.158 418.04 276.619 418.83 276.295C420.16 275.72 421.526 275.433 422.963 275.433C427.563 275.433 429.432 277.697 429.432 282.153V290.383C429.432 291.353 428.641 292.216 427.599 292.216C426.557 292.216 425.838 291.425 425.838 290.275C424.796 291.569 423.215 292.216 421.058 292.216C418.04 292.216 415.991 290.311 415.991 287.256ZM425.551 287.256V285.603C424.868 285.064 423.897 284.813 422.712 284.813C421.238 284.813 420.124 285.531 420.124 286.825C420.124 288.011 421.094 288.73 422.424 288.73C423.826 288.73 424.868 288.227 425.551 287.256Z" fill="black"/>
<path d="M411.81 277.589V290.275C411.81 291.389 410.911 292.288 409.761 292.288C408.576 292.288 407.677 291.389 407.677 290.275V277.589C407.677 276.475 408.576 275.577 409.761 275.577C410.911 275.577 411.81 276.475 411.81 277.589ZM407.821 270.438L410.013 267.024C410.265 266.628 410.66 266.413 411.163 266.413C411.486 266.413 411.738 266.484 411.99 266.664L412.852 267.311C413.211 267.563 413.391 267.922 413.391 268.425C413.391 268.784 413.283 269.072 413.068 269.324L410.48 272.306C410.157 272.666 409.761 272.845 409.258 272.845C408.935 272.845 408.611 272.738 408.288 272.558C407.821 272.234 407.605 271.803 407.605 271.228C407.605 270.941 407.677 270.689 407.821 270.438Z" fill="black"/>
<path d="M401.888 279.709H399.517V290.275C399.517 291.389 398.618 292.288 397.468 292.288C396.282 292.288 395.384 291.389 395.384 290.275V273.205C395.384 268.784 397.504 266.448 401.134 266.448C403.793 266.448 405.123 267.131 405.123 268.497C405.123 269.755 404.44 270.402 403.074 270.402C402.751 270.402 401.996 270.294 401.709 270.294C400.307 270.294 399.517 271.48 399.517 273.528V275.828H401.888C403.003 275.828 403.901 276.727 403.901 277.769C403.901 278.811 403.003 279.709 401.888 279.709Z" fill="black"/>
<path d="M377.527 287.256C377.527 283.842 379.971 282.009 383.421 282.009C384.894 282.009 386.116 282.369 387.086 283.052V282.548C387.086 280.069 386.26 278.883 384.067 278.883C383.169 278.883 382.307 278.991 381.552 279.242C381.157 279.35 380.905 279.386 380.725 279.386C380.078 279.386 379.611 279.098 379.324 278.523C379.216 278.308 379.18 278.092 379.18 277.841C379.18 277.158 379.575 276.619 380.366 276.295C381.696 275.72 383.061 275.433 384.499 275.433C389.099 275.433 390.967 277.697 390.967 282.153V290.383C390.967 291.353 390.177 292.216 389.135 292.216C388.092 292.216 387.374 291.425 387.374 290.275C386.332 291.569 384.75 292.216 382.594 292.216C379.575 292.216 377.527 290.311 377.527 287.256ZM387.086 287.256V285.603C386.403 285.064 385.433 284.813 384.247 284.813C382.774 284.813 381.66 285.531 381.66 286.825C381.66 288.011 382.63 288.73 383.96 288.73C385.361 288.73 386.403 288.227 387.086 287.256Z" fill="black"/>
<path d="M368.16 275.577C369.31 275.577 370.173 276.367 370.173 277.373C371.143 276.116 372.365 275.469 373.838 275.469C374.881 275.469 375.959 276.08 375.959 277.337C375.959 278.739 375.096 279.458 373.371 279.458C373.263 279.458 372.94 279.422 372.796 279.422H372.545C371.503 279.422 370.712 279.997 370.173 281.147V290.275C370.173 291.389 369.274 292.287 368.124 292.287C366.938 292.287 366.04 291.389 366.04 290.275V277.841C366.04 276.439 366.867 275.577 368.16 275.577Z" fill="black"/>
<path d="M353.754 288.083C353.754 288.406 353.862 288.694 354.078 288.909C359.109 288.909 362.559 290.706 362.559 294.192C362.559 297.678 359.145 299.475 354.15 299.475C349.118 299.475 345.74 297.75 345.74 294.192C345.74 291.605 347.789 289.88 350.987 289.197C350.807 288.873 350.7 288.478 350.7 288.083C350.7 287.616 350.807 287.256 351.059 286.933C348.651 285.963 347.214 283.914 347.214 281.506C347.214 279.817 347.861 278.38 349.118 277.194C350.376 276.008 352.065 275.433 354.114 275.433C355.659 275.433 357.061 275.828 358.246 276.583L361.517 275.864C361.625 275.828 361.732 275.828 361.912 275.828C362.667 275.828 363.35 276.331 363.529 277.086C363.565 277.158 363.565 277.266 363.565 277.409C363.565 278.164 363.026 278.883 362.271 279.027L360.582 279.422C360.834 280.105 360.978 280.788 360.978 281.506C360.978 283.195 360.331 284.597 359.073 285.747C357.779 286.897 356.09 287.472 353.97 287.472C353.826 287.616 353.754 287.831 353.754 288.083ZM349.586 294.192C349.586 295.45 351.311 296.169 354.15 296.169C357.168 296.169 358.678 295.522 358.678 294.192C358.678 293.006 357.061 292.216 354.15 292.216C351.275 292.216 349.586 293.006 349.586 294.192ZM351.921 279.566C350.161 281.183 351.346 284.345 354.114 284.13C355.875 284.13 357.132 283.088 357.132 281.506C357.132 279.925 355.982 278.775 354.114 278.775C353.215 278.775 352.461 279.027 351.921 279.566Z" fill="black"/>
<path d="M329.118 289.988C327.501 288.406 326.675 286.394 326.675 283.914C326.675 281.434 327.501 279.422 329.118 277.805C330.736 276.223 332.856 275.433 335.479 275.433C338.103 275.433 340.259 276.223 341.876 277.805C343.493 279.422 344.284 281.434 344.284 283.914C344.284 286.394 343.493 288.406 341.876 289.988C340.259 291.605 338.103 292.395 335.479 292.395C332.856 292.395 330.736 291.605 329.118 289.988ZM331.095 283.914C331.095 286.609 332.928 288.55 335.479 288.55C338.067 288.55 339.9 286.681 339.9 283.914C339.9 281.219 338.031 279.314 335.479 279.314C333 279.314 331.095 281.183 331.095 283.914Z" fill="black"/>
<path d="M322.458 277.589V290.275C322.458 291.389 321.559 292.288 320.409 292.288C319.223 292.288 318.325 291.389 318.325 290.275V277.589C318.325 276.475 319.223 275.577 320.409 275.577C321.559 275.577 322.458 276.475 322.458 277.589ZM320.481 267.599C321.739 267.599 322.853 268.569 322.853 270.006C322.853 271.588 321.739 272.594 320.481 272.594C319.008 272.594 317.894 271.588 317.894 270.006C317.894 268.569 319.044 267.599 320.481 267.599Z" fill="black"/>
<path d="M311.107 268.856V285.855C311.107 287.544 311.611 288.406 312.617 288.406H313.228C313.623 288.406 313.875 288.442 314.054 288.514C314.737 288.766 315.061 289.233 315.061 289.988C315.061 291.533 313.767 292.288 311.143 292.288C308.376 292.288 306.975 290.706 306.975 287.544V268.856C306.975 267.742 307.873 266.844 309.059 266.844C310.209 266.844 311.107 267.742 311.107 268.856Z" fill="black"/>
<path d="M291.419 268.856V276.834C292.605 275.9 294.042 275.433 295.696 275.433C298.067 275.433 299.936 276.188 301.338 277.697C302.703 279.242 303.386 281.219 303.386 283.663C303.386 286.322 302.56 288.442 300.906 290.023C299.217 291.605 296.989 292.395 294.15 292.395C292.389 292.395 290.7 292.072 289.083 291.461C287.897 290.994 287.286 290.131 287.286 288.873V268.856C287.286 267.742 288.185 266.844 289.37 266.844C290.52 266.844 291.419 267.742 291.419 268.856ZM291.419 280.859V287.723C292.281 288.263 293.252 288.55 294.366 288.55C297.061 288.55 298.966 286.789 298.966 283.95C298.966 280.967 297.169 279.314 294.725 279.314C293.396 279.314 292.317 279.817 291.419 280.859Z" fill="black"/>
<path d="M282.063 277.589V290.275C282.063 291.389 281.165 292.288 280.015 292.288C278.829 292.288 277.93 291.389 277.93 290.275V277.589C277.93 276.475 278.829 275.577 280.015 275.577C281.165 275.577 282.063 276.475 282.063 277.589ZM280.087 267.599C281.344 267.599 282.458 268.569 282.458 270.006C282.458 271.588 281.344 272.594 280.087 272.594C278.613 272.594 277.499 271.588 277.499 270.006C277.499 268.569 278.649 267.599 280.087 267.599Z" fill="black"/>
<path d="M261.764 268.856V276.834C262.95 275.9 264.387 275.433 266.04 275.433C268.412 275.433 270.281 276.188 271.682 277.697C273.048 279.242 273.731 281.219 273.731 283.663C273.731 286.322 272.904 288.442 271.251 290.023C269.562 291.605 267.334 292.395 264.495 292.395C262.734 292.395 261.045 292.072 259.428 291.461C258.242 290.994 257.631 290.131 257.631 288.873V268.856C257.631 267.742 258.529 266.844 259.715 266.844C260.865 266.844 261.764 267.742 261.764 268.856ZM261.764 280.859V287.723C262.626 288.263 263.596 288.55 264.711 288.55C267.406 288.55 269.311 286.789 269.311 283.95C269.311 280.967 267.514 279.314 265.07 279.314C263.74 279.314 262.662 279.817 261.764 280.859Z" fill="black"/>
<path d="M232.338 287.256C232.338 283.842 234.782 282.009 238.232 282.009C239.705 282.009 240.927 282.369 241.897 283.052V282.548C241.897 280.069 241.071 278.883 238.879 278.883C237.98 278.883 237.118 278.991 236.363 279.242C235.968 279.35 235.716 279.386 235.536 279.386C234.889 279.386 234.422 279.098 234.135 278.523C234.027 278.308 233.991 278.092 233.991 277.841C233.991 277.158 234.386 276.619 235.177 276.295C236.507 275.72 237.872 275.433 239.31 275.433C243.91 275.433 245.779 277.697 245.779 282.153V290.383C245.779 291.353 244.988 292.216 243.946 292.216C242.904 292.216 242.185 291.425 242.185 290.275C241.143 291.569 239.561 292.216 237.405 292.216C234.386 292.216 232.338 290.311 232.338 287.256ZM241.897 287.256V285.603C241.214 285.064 240.244 284.813 239.058 284.813C237.585 284.813 236.471 285.531 236.471 286.825C236.471 288.011 237.441 288.73 238.771 288.73C240.172 288.73 241.214 288.227 241.897 287.256Z" fill="black"/>
<path d="M226.774 268.856V285.855C226.774 287.544 227.277 288.406 228.283 288.406H228.894C229.289 288.406 229.541 288.442 229.721 288.514C230.403 288.766 230.727 289.233 230.727 289.988C230.727 291.533 229.433 292.288 226.81 292.288C224.042 292.288 222.641 290.706 222.641 287.544V268.856C222.641 267.742 223.539 266.844 224.725 266.844C225.875 266.844 226.774 267.742 226.774 268.856Z" fill="black"/>
<path d="M197.348 287.256C197.348 283.842 199.792 282.009 203.242 282.009C204.715 282.009 205.937 282.369 206.907 283.052V282.548C206.907 280.069 206.081 278.883 203.889 278.883C202.99 278.883 202.128 278.991 201.373 279.242C200.978 279.35 200.726 279.386 200.546 279.386C199.899 279.386 199.432 279.098 199.145 278.523C199.037 278.308 199.001 278.092 199.001 277.841C199.001 277.158 199.396 276.619 200.187 276.295C201.517 275.72 202.882 275.433 204.32 275.433C208.92 275.433 210.789 277.697 210.789 282.153V290.383C210.789 291.353 209.998 292.216 208.956 292.216C207.914 292.216 207.195 291.425 207.195 290.275C206.153 291.569 204.571 292.216 202.415 292.216C199.396 292.216 197.348 290.311 197.348 287.256ZM206.907 287.256V285.603C206.224 285.064 205.254 284.813 204.068 284.813C202.595 284.813 201.481 285.531 201.481 286.825C201.481 288.011 202.451 288.73 203.781 288.73C205.182 288.73 206.224 288.227 206.907 287.256Z" fill="black"/>
<path d="M193.802 268.856V289.988C193.802 291.245 193.155 292.288 191.754 292.288C190.568 292.288 189.705 291.497 189.669 290.311C188.411 291.641 186.866 292.288 185.033 292.288C182.733 292.288 180.9 291.533 179.499 290.023C178.097 288.55 177.415 286.573 177.415 284.094C177.415 281.542 178.241 279.458 179.894 277.841C181.547 276.223 183.668 275.433 186.291 275.433C187.657 275.433 188.771 275.684 189.669 276.223V268.856C189.669 267.742 190.568 266.844 191.754 266.844C192.904 266.844 193.802 267.742 193.802 268.856ZM189.669 286.789V280.284C188.627 279.638 187.585 279.314 186.471 279.314C183.883 279.314 181.835 281.075 181.835 283.95C181.835 286.717 183.596 288.442 185.896 288.442C187.297 288.442 188.555 287.903 189.669 286.789Z" fill="black"/>
<path d="M159.679 289.988C158.061 288.406 157.235 286.394 157.235 283.914C157.235 281.434 158.061 279.422 159.679 277.805C161.296 276.223 163.416 275.433 166.04 275.433C168.663 275.433 170.819 276.223 172.436 277.805C174.054 279.422 174.844 281.434 174.844 283.914C174.844 286.394 174.054 288.406 172.436 289.988C170.819 291.605 168.663 292.395 166.04 292.395C163.416 292.395 161.296 291.605 159.679 289.988ZM161.655 283.914C161.655 286.609 163.488 288.55 166.04 288.55C168.627 288.55 170.46 286.681 170.46 283.914C170.46 281.219 168.591 279.314 166.04 279.314C163.56 279.314 161.655 281.183 161.655 283.914Z" fill="black"/>
<path d="M147.753 290.095V270.977H141.608C140.494 270.977 139.595 270.078 139.595 268.892C139.595 267.742 140.494 266.844 141.608 266.844H158.319C159.433 266.844 160.331 267.742 160.331 268.892C160.331 270.078 159.433 270.977 158.319 270.977H152.173V290.095C152.173 291.281 151.167 292.288 149.981 292.288C148.723 292.288 147.753 291.353 147.753 290.095Z" fill="black"/>
<path d="M503.932 312V345.278C503.932 347.794 504.435 348.441 506.447 348.8C508.891 349.303 510.113 350.741 510.113 353.113C510.113 355.772 508.963 357.497 506.735 358.288C505.585 358.647 504.435 358.863 503.285 358.863C496.457 358.863 493.15 354.55 493.15 348.728V312C493.15 309.197 495.45 306.969 498.541 306.969C501.632 306.969 503.932 309.197 503.932 312Z" fill="#0F0B0C"/>
<path d="M475.138 355.341L466.801 342.547V353.688C466.801 356.491 464.501 358.719 461.41 358.719C458.32 358.719 456.02 356.491 456.02 353.688V312C456.02 309.197 458.32 306.969 461.41 306.969C464.501 306.969 466.801 309.197 466.801 312V339.672L473.916 328.316C475.354 326.088 477.295 324.938 479.666 324.938C482.757 324.938 484.698 327.238 484.698 330.041C484.698 331.263 484.338 332.341 483.62 333.275L478.66 340.247L485.201 349.95C485.848 351.028 486.207 352.106 486.207 353.184C486.207 356.131 484.051 358.719 480.816 358.719C478.516 358.719 476.648 357.569 475.138 355.341Z" fill="#0F0B0C"/>
<path d="M438.055 353.688V340.606C438.055 336.941 435.97 335.144 432.736 335.144C430.867 335.144 429.214 335.862 427.705 337.372V353.688C427.705 356.491 425.405 358.719 422.314 358.719C419.223 358.719 416.923 356.491 416.923 353.688V330.688C416.923 327.813 419.295 325.297 422.817 325.297C424.901 325.297 426.483 326.231 427.705 328.1C430.005 326.016 432.664 324.938 435.683 324.938C443.733 324.938 448.836 329.178 448.836 338.737V353.688C448.836 356.491 446.536 358.719 443.445 358.719C440.355 358.719 438.055 356.491 438.055 353.688Z" fill="#0F0B0C"/>
<path d="M391.922 358.719C385.956 358.719 381.716 354.622 381.716 348.225C381.716 341.253 386.531 337.516 393.36 337.516C396.019 337.516 398.175 338.091 399.685 339.312V338.666C399.685 335.431 398.175 333.778 395.228 333.778C393.719 333.778 392.21 333.994 390.7 334.425C390.413 334.497 389.981 334.569 389.478 334.569C387.538 334.569 386.172 333.562 385.525 331.55C385.381 331.191 385.31 330.759 385.31 330.4C385.31 328.603 386.747 326.806 388.76 326.016C390.916 325.225 393.431 324.794 396.306 324.794C405.866 324.794 409.747 329.394 409.747 338.522V353.4C409.747 356.634 407.663 358.719 405.147 358.719C402.703 358.719 401.122 357.497 400.403 355.053C398.894 357.497 396.019 358.719 391.922 358.719ZM399.685 347.794V345.781C398.678 345.062 397.313 344.703 395.588 344.703C393.791 344.703 392.497 345.637 392.497 347.147C392.497 348.584 393.791 349.662 395.588 349.662C397.385 349.662 398.75 349.016 399.685 347.794Z" fill="#0F0B0C"/>
<path d="M362.941 325.297C365.098 325.297 366.751 326.231 367.973 328.172C369.913 326.016 371.926 324.938 373.866 324.938C377.245 324.938 378.754 327.237 378.754 329.897C378.754 330.544 378.682 331.119 378.538 331.622C377.748 334.353 375.879 335.719 373.076 335.719C372.501 335.719 372.07 335.719 371.782 335.647C371.566 335.575 371.207 335.575 370.776 335.575C368.404 335.575 368.26 337.372 367.973 338.162V353.688C367.973 356.491 365.673 358.719 362.582 358.719C359.491 358.719 357.191 356.491 357.191 353.688V330.688C357.191 327.813 359.276 325.297 362.941 325.297Z" fill="#0F0B0C"/>
<path d="M344.981 339.888H334.918V353.328C334.918 356.275 332.403 358.719 329.168 358.719C325.934 358.719 323.418 356.275 323.418 353.328V313.078C323.418 310.131 325.862 307.688 328.809 307.688H347.137C350.084 307.688 352.528 310.131 352.528 313.078C352.528 316.025 350.084 318.469 347.137 318.469H334.918V329.106H344.981C347.928 329.106 350.372 331.55 350.372 334.497C350.372 337.444 347.928 339.888 344.981 339.888Z" fill="#0F0B0C"/>
<path d="M285.942 325.297C288.099 325.297 289.752 326.231 290.974 328.172C292.914 326.016 294.927 324.938 296.867 324.938C300.246 324.938 301.755 327.237 301.755 329.897C301.755 330.544 301.683 331.119 301.539 331.622C300.749 334.353 298.88 335.719 296.077 335.719C295.502 335.719 295.071 335.719 294.783 335.647C294.567 335.575 294.208 335.575 293.777 335.575C291.405 335.575 291.261 337.372 290.974 338.162V353.688C290.974 356.491 288.674 358.719 285.583 358.719C282.492 358.719 280.192 356.491 280.192 353.688V330.688C280.192 327.813 282.277 325.297 285.942 325.297Z" fill="#0F0B0C"/>
<path d="M269.227 354.047C265.92 357.281 261.536 358.862 256.145 358.862C250.755 358.862 246.37 357.281 243.136 354.047C239.83 350.812 238.177 346.787 238.177 341.828C238.177 336.869 239.83 332.844 243.136 329.609C246.37 326.375 250.755 324.794 256.145 324.794C261.536 324.794 265.92 326.375 269.227 329.609C272.461 332.844 274.114 336.869 274.114 341.828C274.114 346.787 272.461 350.812 269.227 354.047ZM260.745 336.797C257.08 332.7 249.245 335.431 249.677 341.828C249.677 345.853 252.408 348.8 256.145 348.8C259.883 348.8 262.614 346.141 262.614 341.828C262.614 339.744 261.967 338.091 260.745 336.797Z" fill="#0F0B0C"/>
<path d="M214.056 345.709V320.984C214.056 318.181 216.356 315.953 219.447 315.953C222.537 315.953 224.837 318.181 224.837 320.984V325.656H228.791C231.45 325.656 233.822 328.028 233.822 330.688C233.822 333.347 231.45 335.719 228.791 335.719H224.837V345.063C224.837 347.434 225.556 348.656 226.922 348.656C227.497 348.656 228 348.584 228.431 348.513C229.078 348.441 229.509 348.369 229.725 348.369C231.522 348.369 232.816 349.303 233.606 351.172C233.894 351.819 234.037 352.466 234.037 353.113C234.037 355.053 233.031 356.491 230.947 357.425C228.862 358.359 226.562 358.863 224.119 358.863C217.003 358.863 214.056 354.334 214.056 345.709Z" fill="#0F0B0C"/>
<path d="M196.763 355.341L188.426 342.547V353.688C188.426 356.491 186.126 358.719 183.035 358.719C179.944 358.719 177.644 356.491 177.644 353.688V312C177.644 309.197 179.944 306.969 183.035 306.969C186.126 306.969 188.426 309.197 188.426 312V339.672L195.541 328.316C196.979 326.088 198.919 324.938 201.291 324.938C204.382 324.938 206.322 327.238 206.322 330.041C206.322 331.263 205.963 332.341 205.244 333.275L200.285 340.247L206.826 349.95C207.472 351.028 207.832 352.106 207.832 353.184C207.832 356.131 205.676 358.719 202.441 358.719C200.141 358.719 198.272 357.569 196.763 355.341Z" fill="#0F0B0C"/>
<path d="M154.979 353.328V312.359C154.979 309.412 157.494 306.969 160.729 306.969C163.963 306.969 166.479 309.412 166.479 312.359V353.328C166.479 356.275 163.963 358.719 160.729 358.719C157.494 358.719 154.979 356.275 154.979 353.328Z" fill="#0F0B0C"/>
<path d="M102.271 312.575C102.271 309.484 104.643 306.969 107.877 306.969C110.249 306.969 112.405 308.406 113.196 310.634L124.768 340.894L135.765 310.634C136.555 308.406 138.712 306.969 141.083 306.969C144.03 306.969 146.33 309.341 146.33 312.144C146.33 312.647 146.187 313.294 145.971 314.012L130.374 353.831C129.08 357.066 127.068 358.719 124.337 358.719C121.39 358.719 119.737 357.497 118.227 353.759L102.63 314.659C102.415 314.012 102.271 313.366 102.271 312.575Z" fill="#0F0B0C"/>
<path d="M421.577 420.085L363.763 497.483C362.287 499.361 360.275 500.3 357.593 500.3C355.983 500.3 354.642 499.897 353.568 499.092C351.825 497.885 350.886 496.007 350.886 493.727C350.886 491.983 351.556 490.239 352.764 488.63L410.309 411.634C411.785 409.756 413.797 408.817 416.077 408.817C417.687 408.817 419.028 409.219 420.235 410.158C422.113 411.634 423.052 413.512 423.052 415.792C423.052 417.402 422.516 418.877 421.577 420.085ZM376.506 449.193C371.275 453.888 364.434 456.168 356.117 456.168C347.8 456.168 340.959 453.888 335.728 449.193C330.497 444.632 327.814 438.596 327.814 430.95C327.814 423.304 330.497 417.268 335.728 412.707C340.959 408.28 347.8 406 356.117 406C364.434 406 371.275 408.28 376.506 412.707C381.738 417.268 384.42 423.304 384.42 430.95C384.42 438.596 381.738 444.632 376.506 449.193ZM363.092 424.511C359.605 421.292 352.764 421.292 349.276 424.511C347.532 426.121 346.593 428.267 346.593 430.95C346.593 436.718 350.617 440.071 356.117 440.071C362.019 440.071 365.641 436.718 365.641 430.95C365.641 428.267 364.836 426.121 363.092 424.511ZM438.613 496.141C433.381 500.836 426.54 503.117 418.223 503.117C409.907 503.117 403.066 500.836 397.834 496.141C392.603 491.581 389.92 485.544 389.92 477.898C389.92 470.253 392.603 464.216 397.834 459.656C403.066 455.229 409.907 452.949 418.223 452.949C426.54 452.949 433.381 455.229 438.613 459.656C443.844 464.216 446.527 470.253 446.527 477.898C446.527 485.544 443.844 491.581 438.613 496.141ZM425.199 471.46C421.711 468.24 414.87 468.24 411.382 471.46C409.638 473.069 408.7 475.216 408.7 477.898C408.7 483.666 412.724 487.02 418.223 487.02C424.125 487.02 427.747 483.666 427.747 477.898C427.747 475.216 426.942 473.069 425.199 471.46Z" fill="#FD402E"/>
<path d="M293.277 434.437C293.277 428.938 289.79 426.121 282.948 426.121C276.376 426.121 273.022 429.608 273.022 434.437C273.022 439.132 276.376 443.156 282.412 443.156H284.156C290.058 443.156 293.277 439.132 293.277 434.437ZM270.742 473.204C270.742 478.972 274.632 482.996 283.083 482.996C291.533 482.996 295.692 479.776 295.557 473.204C295.423 466.765 290.997 463.277 284.156 463.277H282.546C276.107 463.277 270.742 466.899 270.742 473.204ZM314.739 430.816C314.739 440.071 309.776 448.79 301.325 453.083C310.044 455.766 317.02 463.814 317.02 475.484C317.02 484.203 313.935 490.91 307.63 495.739C301.325 500.702 293.277 503.117 283.217 503.117C273.29 503.117 265.108 500.702 258.803 496.007C252.499 491.312 249.28 485.142 249.28 477.228C249.28 465.424 255.182 457.107 263.632 453.217C255.584 448.656 251.56 441.144 251.56 430.816C251.56 423.572 254.645 417.67 260.681 412.975C266.718 408.28 274.095 406 283.083 406C292.07 406 299.582 408.28 305.618 412.975C311.654 417.67 314.739 423.572 314.739 430.816Z" fill="#FD402E"/>
<path d="M233.367 430.011C233.367 440.876 228.941 447.717 219.417 452.144C230.684 454.692 236.989 463.277 236.989 474.679C236.989 483.398 234.038 490.239 228.002 495.337C221.965 500.568 214.32 503.117 205.064 503.117C194.467 503.117 186.284 500.568 180.651 495.337C176.358 491.581 175.419 485.276 178.639 481.118C182.26 476.423 188.162 476.289 192.321 479.106C196.211 481.654 199.967 482.996 203.723 482.996C211.368 482.996 215.527 479.106 215.527 473.874C215.527 466.899 211.368 463.411 203.052 463.411C196.613 463.411 191.918 460.058 191.918 453.485C191.918 446.912 196.479 443.559 202.381 443.559C207.747 443.559 211.905 440.071 211.905 434.035C211.905 429.608 209.222 426.121 203.32 426.121C199.832 426.121 196.613 426.926 193.796 428.535C188.967 431.352 183.065 430.547 180.248 425.853C178.37 422.902 177.431 416.597 183.065 412.305C188.699 408.146 196.077 406 205.198 406C213.515 406 220.356 408.146 225.587 412.439C230.819 416.865 233.367 422.633 233.367 430.011Z" fill="#FD402E"/>
<path d="M439.055 546.807C436.863 548.962 433.952 550.021 430.369 550.03C426.785 550.04 423.868 548.996 421.713 546.852C419.51 544.708 418.404 542.035 418.395 538.739C418.387 535.442 419.479 532.764 421.671 530.609C423.815 528.453 426.726 527.394 430.309 527.385C433.893 527.376 436.81 528.419 439.013 530.563C441.168 532.707 442.274 535.38 442.283 538.676C442.291 541.973 441.2 544.651 439.055 546.807ZM433.388 535.355C430.944 532.639 425.742 534.468 426.039 538.719C426.046 541.394 427.867 543.348 430.351 543.342C432.835 543.335 434.646 541.563 434.639 538.696C434.635 537.311 434.202 536.213 433.388 535.355Z" fill="black"/>
<path d="M402.37 541.361L402.327 524.926C402.322 523.063 403.847 521.578 405.901 521.572C407.955 521.567 409.488 523.044 409.493 524.907L409.501 528.013L412.129 528.006C413.896 528.001 415.477 529.574 415.482 531.341C415.486 533.109 413.914 534.69 412.146 534.694L409.518 534.701L409.535 540.912C409.539 542.488 410.019 543.299 410.926 543.297C411.309 543.296 411.643 543.247 411.929 543.199C412.359 543.15 412.646 543.101 412.789 543.101C413.983 543.098 414.845 543.717 415.374 544.957C415.566 545.387 415.663 545.817 415.664 546.247C415.667 547.537 415.001 548.494 413.617 549.119C412.233 549.743 410.705 550.082 409.081 550.086C404.351 550.098 402.385 547.094 402.37 541.361Z" fill="black"/>
<path d="M390.92 546.694L390.897 537.999C390.891 535.562 389.503 534.371 387.353 534.377C386.111 534.38 385.013 534.861 384.012 535.867L384.041 546.712C384.045 548.575 382.521 550.06 380.466 550.065C378.412 550.071 376.879 548.594 376.874 546.73L376.834 531.442C376.829 529.531 378.402 527.855 380.743 527.849C382.128 527.845 383.181 528.464 383.996 529.704C385.521 528.314 387.287 527.593 389.294 527.588C394.644 527.574 398.044 530.384 398.06 536.738L398.086 546.675C398.091 548.538 396.566 550.023 394.512 550.028C392.458 550.034 390.925 548.557 390.92 546.694Z" fill="black"/>
<path d="M358.372 536.507L366.111 536.487C366.107 534.91 364.766 533.528 362.616 533.534C360.466 533.539 359.083 534.546 358.372 536.507ZM362.839 527.561C365.706 527.554 368.145 528.503 370.204 530.361C372.263 532.266 373.273 534.7 373.281 537.662L373.283 538.618C373.288 540.338 371.905 541.249 370.519 541.253L358.623 541.284C359.249 543.241 360.924 544.24 363.647 544.233C364.555 544.23 365.558 544.084 366.656 543.747C366.99 543.651 367.324 543.602 367.611 543.601C368.805 543.598 369.667 544.169 370.1 545.315C370.244 545.601 370.293 545.935 370.294 546.317C370.297 547.607 369.631 548.565 368.342 549.189C367.054 549.861 365.24 550.2 362.899 550.207C359.363 550.216 356.542 549.172 354.434 547.123C352.279 545.075 351.221 542.306 351.212 538.914C351.204 535.714 352.295 532.987 354.44 530.832C356.584 528.677 359.352 527.57 362.839 527.561Z" fill="black"/>
<path d="M333.741 531.316L333.764 540.202C333.769 542.113 334.633 543.592 336.544 543.587C337.786 543.584 338.931 542.912 339.979 541.619L339.952 531.3C339.947 529.437 341.472 527.952 343.526 527.946C345.581 527.941 347.113 529.418 347.118 531.281L347.159 546.808C347.164 548.671 345.639 550.156 343.536 550.162C341.578 550.167 340.429 549.31 339.994 547.543C338.566 549.362 336.514 550.275 333.838 550.282C329.873 550.293 326.617 547.292 326.602 541.75L326.575 531.335C326.57 529.471 328.095 527.986 330.149 527.981C332.204 527.976 333.736 529.453 333.741 531.316Z" fill="black"/>
<path d="M319.386 534.984C318.908 534.986 318.335 534.892 317.665 534.702C316.9 534.465 316.231 534.372 315.61 534.373C313.174 534.38 310.981 536.153 310.988 539.019C310.995 541.743 313.293 543.648 315.73 543.641C316.446 543.639 317.258 543.446 318.165 543.109C318.881 542.821 319.549 542.676 320.075 542.674C321.078 542.672 321.939 543.147 322.563 544.149C322.899 544.674 323.044 545.246 323.045 545.82C323.048 547.062 322.478 548.067 321.381 548.786C319.807 549.794 317.754 550.324 315.174 550.331C311.591 550.341 308.769 549.297 306.614 547.248C304.459 545.2 303.353 542.431 303.344 539.039C303.336 535.839 304.38 533.16 306.524 530.957C308.62 528.802 311.341 527.696 314.685 527.687C316.883 527.681 318.795 528.059 320.469 528.819C321.808 529.436 322.479 530.342 322.482 531.584C322.484 532.11 322.342 532.636 322.057 533.21C321.486 534.406 320.58 534.981 319.386 534.984Z" fill="black"/>
<path d="M291.045 550.394C288.322 550.401 285.931 549.739 283.826 548.454C282.821 547.836 282.341 546.929 282.338 545.831C282.337 545.305 282.479 544.779 282.764 544.301C283.287 543.392 284.098 542.912 285.197 542.909C285.722 542.907 286.392 543.049 287.205 543.381C288.735 544.094 290.169 544.425 291.507 544.421C292.606 544.418 293.131 544.082 293.129 543.461C293.123 541.12 281.756 542.631 281.736 534.796C281.724 530.353 285.301 527.764 290.126 527.751C292.658 527.745 294.809 528.169 296.531 528.977C297.727 529.547 298.302 530.405 298.306 531.6C298.307 532.03 298.212 532.412 298.022 532.843C297.5 534.038 296.689 534.614 295.495 534.617C295.112 534.618 294.634 534.524 294.109 534.382C292.626 533.955 291.479 533.72 290.571 533.722C289.568 533.725 288.9 534.156 288.902 534.682C288.908 536.879 300.274 535.464 300.294 543.108C300.306 547.504 296.73 550.379 291.045 550.394Z" fill="black"/>
<path d="M264.269 536.753L272.008 536.733C272.004 535.156 270.663 533.774 268.513 533.78C266.363 533.785 264.98 534.792 264.269 536.753ZM268.736 527.807C271.603 527.8 274.042 528.749 276.101 530.607C278.16 532.512 279.17 534.946 279.178 537.908L279.18 538.864C279.185 540.584 277.801 541.495 276.416 541.499L264.52 541.53C265.146 543.487 266.821 544.486 269.544 544.479C270.452 544.476 271.455 544.33 272.553 543.993C272.887 543.897 273.221 543.848 273.508 543.847C274.702 543.844 275.564 544.415 275.997 545.561C276.141 545.847 276.189 546.181 276.19 546.563C276.194 547.853 275.527 548.811 274.239 549.435C272.951 550.107 271.136 550.446 268.795 550.452C265.26 550.462 262.439 549.418 260.331 547.369C258.176 545.32 257.118 542.552 257.109 539.16C257.1 535.959 258.192 533.233 260.336 531.078C262.481 528.922 265.249 527.816 268.736 527.807Z" fill="black"/>
<path d="M245.871 528.536L245.847 519.363C245.842 517.5 247.367 516.015 249.421 516.009C251.476 516.004 253.008 517.481 253.013 519.344L253.085 546.862C253.091 548.917 251.566 550.402 249.607 550.407C247.935 550.411 246.738 549.65 245.922 548.171C244.493 549.656 242.68 550.425 240.482 550.431C237.472 550.439 235.033 549.442 233.26 547.44C231.439 545.438 230.525 542.813 230.516 539.516C230.507 536.124 231.599 533.303 233.791 531.147C235.983 528.991 238.846 527.885 242.334 527.876C243.719 527.872 244.914 528.108 245.871 528.536ZM245.906 542.056L245.889 535.463C244.836 534.845 243.785 534.561 242.686 534.564C240.202 534.57 238.152 536.248 238.159 539.257C238.167 541.981 239.987 543.744 241.945 543.738C243.379 543.735 244.715 543.158 245.906 542.056Z" fill="black"/>
<path d="M203.664 536.911L211.403 536.891C211.399 535.314 210.058 533.932 207.908 533.938C205.758 533.943 204.375 534.95 203.664 536.911ZM208.131 527.965C210.998 527.958 213.437 528.907 215.496 530.765C217.555 532.671 218.565 535.104 218.573 538.066L218.575 539.022C218.58 540.742 217.196 541.653 215.811 541.657L203.915 541.688C204.541 543.645 206.216 544.644 208.939 544.637C209.847 544.634 210.85 544.488 211.948 544.151C212.282 544.055 212.616 544.006 212.903 544.005C214.097 544.002 214.959 544.573 215.392 545.719C215.536 546.005 215.584 546.339 215.585 546.722C215.589 548.011 214.922 548.969 213.634 549.593C212.346 550.265 210.531 550.605 208.19 550.611C204.655 550.62 201.834 549.576 199.726 547.527C197.571 545.479 196.513 542.71 196.504 539.318C196.495 536.118 197.587 533.392 199.731 531.236C201.876 529.081 204.644 527.975 208.131 527.965Z" fill="black"/>
<path d="M185.266 528.694L185.242 519.521C185.237 517.658 186.762 516.173 188.816 516.168C190.871 516.162 192.403 517.639 192.408 519.503L192.48 547.021C192.486 549.075 190.961 550.56 189.002 550.565C187.33 550.57 186.133 549.808 185.317 548.33C183.888 549.814 182.075 550.583 179.877 550.589C176.867 550.597 174.428 549.6 172.655 547.598C170.834 545.596 169.92 542.971 169.911 539.675C169.902 536.283 170.994 533.461 173.186 531.306C175.378 529.15 178.241 528.044 181.729 528.034C183.114 528.031 184.309 528.267 185.266 528.694ZM185.301 542.214L185.284 535.621C184.231 535.003 183.18 534.719 182.081 534.722C179.597 534.729 177.547 536.406 177.554 539.416C177.562 542.139 179.382 543.902 181.34 543.897C182.774 543.893 184.11 543.316 185.301 542.214Z" fill="black"/>
<path d="M328.338 390.158L328.315 381.463C328.309 379.027 326.92 377.836 324.77 377.842C323.528 377.845 322.431 378.325 321.43 379.331L321.458 390.176C321.463 392.039 319.938 393.524 317.884 393.53C315.83 393.535 314.297 392.058 314.292 390.195L314.252 374.907C314.247 372.996 315.819 371.32 318.16 371.314C319.546 371.31 320.598 371.928 321.414 373.168C322.939 371.779 324.705 371.058 326.711 371.052C332.062 371.038 335.462 373.848 335.478 380.202L335.504 390.139C335.509 392.003 333.984 393.488 331.93 393.493C329.875 393.498 328.343 392.021 328.338 390.158Z" fill="#FD402E"/>
<path d="M307.004 390.453C304.812 392.609 301.9 393.667 298.317 393.677C294.734 393.686 291.817 392.642 289.662 390.498C287.458 388.354 286.353 385.682 286.344 382.385C286.335 379.089 287.427 376.41 289.619 374.255C291.764 372.099 294.675 371.041 298.258 371.031C301.841 371.022 304.758 372.065 306.962 374.209C309.117 376.354 310.223 379.026 310.231 382.323C310.24 385.619 309.148 388.297 307.004 390.453ZM301.337 379.002C298.893 376.285 293.69 378.114 293.988 382.365C293.995 385.041 295.816 386.995 298.3 386.988C300.784 386.982 302.595 385.209 302.587 382.343C302.584 380.957 302.151 379.86 301.337 379.002Z" fill="#FD402E"/>
<path d="M281.018 378.386C280.54 378.387 279.966 378.293 279.297 378.104C278.532 377.867 277.863 377.773 277.242 377.775C274.805 377.781 272.612 379.554 272.62 382.421C272.627 385.144 274.925 387.049 277.362 387.043C278.078 387.041 278.89 386.848 279.797 386.511C280.513 386.222 281.181 386.077 281.707 386.076C282.71 386.073 283.571 386.549 284.195 387.55C284.531 388.075 284.675 388.648 284.677 389.221C284.68 390.463 284.11 391.468 283.013 392.188C281.439 393.195 279.386 393.726 276.806 393.733C273.223 393.742 270.401 392.698 268.246 390.65C266.091 388.601 264.985 385.833 264.976 382.441C264.968 379.24 266.012 376.562 268.156 374.358C270.252 372.203 272.972 371.097 276.317 371.088C278.514 371.083 280.426 371.46 282.1 372.22C283.44 372.838 284.111 373.743 284.114 374.986C284.116 375.511 283.974 376.037 283.688 376.611C283.118 377.807 282.212 378.383 281.018 378.386Z" fill="#FD402E"/>
<defs>
<filter id="filter0_d_40_94" x="0.388467" y="233" width="623.223" height="353.223" filterUnits="userSpaceOnUse" color-interpolation-filters="sRGB">
<feFlood flood-opacity="0" result="BackgroundImageFix"/>
<feColorMatrix in="SourceAlpha" type="matrix" values="0 0 0 0 0 0 0 0 0 0 0 0 0 0 0 0 0 0 127 0" result="hardAlpha"/>
<feOffset dy="3.61153"/>
<feGaussianBlur stdDeviation="1.80577"/>
<feComposite in2="hardAlpha" operator="out"/>
<feColorMatrix type="matrix" values="0 0 0 0 0 0 0 0 0 0 0 0 0 0 0 0 0 0 0.25 0"/>
<feBlend mode="normal" in2="BackgroundImageFix" result="effect1_dropShadow_40_94"/>
<feBlend mode="normal" in="SourceGraphic" in2="effect1_dropShadow_40_94" result="shape"/>
</filter>
</defs>
</svg>
