<svg width="184" height="216" viewBox="0 0 184 216" fill="none" xmlns="http://www.w3.org/2000/svg">
<mask id="mask0_53_8" style="mask-type:alpha" maskUnits="userSpaceOnUse" x="0" y="0" width="184" height="216">
<rect width="184" height="216" fill="#D9D9D9"/>
</mask>
<g mask="url(#mask0_53_8)">
<rect x="11.8759" y="38.8759" width="160.701" height="320.152" rx="80.3506" fill="#F4D941" stroke="black" stroke-width="3.75178"/>
<ellipse cx="91.9137" cy="115.693" rx="9.14349" ry="11.0878" transform="rotate(4.60801 91.9137 115.693)" fill="#0F0B0C"/>
<path d="M53.458 82.6468C53.9791 81.8131 56.0217 80.2082 60.0236 80.4583" stroke="black" stroke-width="2.50119" stroke-linecap="round"/>
<path d="M128.806 80.7695C129.601 80.5964 131.656 80.8561 133.512 83.2801" stroke="black" stroke-width="2.50119" stroke-linecap="round"/>
<ellipse cx="126.618" cy="101.687" rx="8.26759" ry="10.2803" transform="rotate(4.60801 126.618 101.687)" fill="#0F0B0C"/>
<path d="M131.308 99.2169C131.742 95.7423 128.39 94.2145 126.931 93.9019C124.93 95.4026 125.472 98.0705 125.993 99.2169C127.764 100.676 130.995 101.718 131.308 99.2169Z" fill="#A8CAE6"/>
<ellipse cx="124.281" cy="105.098" rx="1.24291" ry="1.87589" transform="rotate(42.1084 124.281 105.098)" fill="#A8CAE6"/>
<ellipse cx="58.4604" cy="101.687" rx="8.26759" ry="10.2803" transform="rotate(4.60801 58.4604 101.687)" fill="#0F0B0C"/>
<path d="M63.1502 99.2169C63.5846 95.7423 60.2322 94.2145 58.7731 93.9019C56.7722 95.4026 57.3141 98.0705 57.8352 99.2169C59.6069 100.676 62.8375 101.718 63.1502 99.2169Z" fill="#A8CAE6"/>
<ellipse cx="56.1234" cy="105.098" rx="1.24291" ry="1.87589" transform="rotate(42.1084 56.1234 105.098)" fill="#A8CAE6"/>
<path d="M90.9758 117.663C87.7243 117.413 86.2861 119.852 85.9734 121.102C86.3903 122.145 87.7243 124.292 89.7252 124.542C91.7262 124.792 93.2686 123.604 93.7896 122.978C94.2065 121.311 94.2273 117.913 90.9758 117.663Z" fill="#E7A3BA"/>
<ellipse cx="143.813" cy="117.038" rx="10.63" ry="7.50356" fill="#E7A3BA"/>
<ellipse cx="40.6394" cy="117.038" rx="10.63" ry="7.50356" fill="#E7A3BA"/>
</g>
</svg>
