<svg width="696" height="149" viewBox="0 0 696 149" fill="none" xmlns="http://www.w3.org/2000/svg">
<rect x="695.277" y="120.7" width="39" height="170.695" rx="19.5" transform="rotate(135 695.277 120.7)" fill="#DCA407"/>
<rect x="385.7" width="39" height="170.695" rx="19.5" transform="rotate(45 385.7 0)" fill="#FFCC00"/>
<circle cx="483" cy="73.9474" r="67" fill="#B5FFCC"/>
<rect x="1.52588e-05" y="6.94739" width="39" height="134" rx="19.5" fill="#FD402E"/>
<rect opacity="0.8" x="134" y="101.947" width="39" height="134" rx="19.5" transform="rotate(90 134 101.947)" fill="#B5FFCC"/>
<rect opacity="0.8" x="404" y="6.94739" width="39" height="134" rx="19.5" transform="rotate(90 404 6.94739)" fill="#FD402E"/>
<rect opacity="0.8" x="408" y="101.947" width="39" height="134" rx="19.5" transform="rotate(90 408 101.947)" fill="#04CD60"/>
<rect opacity="0.8" x="667.7" width="39" height="170.695" rx="19.5" transform="rotate(45 667.7 0)" fill="#FFDA27"/>
<rect x="193.721" y="2.94739" width="39" height="141.066" rx="19.5" transform="rotate(24.1532 193.721 2.94739)" fill="#66CC66"/>
<rect opacity="0.9" x="178" y="18.673" width="39" height="141.066" rx="19.5" transform="rotate(-25.3954 178 18.673)" fill="#488D46"/>
<circle cx="483" cy="73.9474" r="22" fill="#04CD60"/>
</svg>
