<svg width="209" height="223" viewBox="0 0 209 223" fill="none" xmlns="http://www.w3.org/2000/svg">
<path d="M9.02391 208.707H5.87115V212.919C5.87115 213.842 5.08296 214.608 4.06957 214.608C3.05618 214.608 2.26799 213.842 2.26799 212.919V200.307C2.26799 199.384 3.03366 198.619 3.95697 198.619H9.6995C10.6228 198.619 11.3885 199.384 11.3885 200.307C11.3885 201.231 10.6228 201.996 9.6995 201.996H5.87115V205.329H9.02391C9.94722 205.329 10.7129 206.095 10.7129 207.018C10.7129 207.942 9.94722 208.707 9.02391 208.707ZM19.7243 208.144V211.004H24.0031C24.9264 211.004 25.692 211.77 25.692 212.693C25.692 213.617 24.9264 214.382 24.0031 214.382H17.8101C16.8868 214.382 16.1211 213.617 16.1211 212.693V200.307C16.1211 199.384 16.8868 198.619 17.8101 198.619H23.7779C24.7012 198.619 25.4668 199.384 25.4668 200.307C25.4668 201.231 24.7012 201.996 23.7779 201.996H19.7243V204.766H23.1023C24.0256 204.766 24.7913 205.532 24.7913 206.455C24.7913 207.379 24.0256 208.144 23.1023 208.144H19.7243ZM39.411 208.167L41.9332 211.545C43.0141 212.828 42.2259 214.675 40.7847 214.608C40.1091 214.608 39.5236 214.247 39.0056 213.504L35.8078 208.865H34.4791V212.919C34.4791 213.842 33.6909 214.608 32.6776 214.608C31.6642 214.608 30.876 213.842 30.876 212.919V200.307C30.876 199.384 31.6416 198.619 32.565 198.596C33.8486 198.596 36.1456 198.573 36.2357 198.573C40.3118 198.573 42.0683 200.488 42.0683 203.618C42.0683 205.757 41.19 207.289 39.411 208.167ZM34.4791 201.996V205.487H35.7853C37.4292 205.487 38.2399 204.879 38.2399 203.663C38.2399 202.514 37.5193 201.951 36.0555 201.951C35.988 201.951 35.47 201.974 34.4791 201.996ZM47.7913 212.919V200.082C47.7913 199.159 48.5795 198.393 49.5929 198.393C50.6063 198.393 51.3945 199.159 51.3945 200.082V212.919C51.3945 213.842 50.6063 214.608 49.5929 214.608C48.5795 214.608 47.7913 213.842 47.7913 212.919ZM67.4364 213.459L66.5131 211.072H60.2752L59.3293 213.459C59.0366 214.225 58.4736 214.608 57.6403 214.608C56.7396 214.608 56.064 213.864 56.064 213.031C56.064 212.783 56.109 212.558 56.1766 212.401L61.266 200.06C61.7164 198.956 62.4596 198.393 63.4955 198.393C64.4863 198.393 65.207 198.934 65.6799 200.037L70.7468 212.198C70.8369 212.423 70.882 212.648 70.882 212.874C70.882 213.797 70.1163 214.608 69.1254 214.608C68.2922 214.608 67.7292 214.225 67.4364 213.459ZM61.6263 207.694H65.1619L63.4054 203.235L61.6263 207.694ZM81.6263 212.693V200.307C81.6263 199.384 82.347 198.619 83.3153 198.596C84.9367 198.573 86.0402 198.551 86.6032 198.551C89.5758 198.551 91.8053 199.294 93.269 200.758C94.7328 202.222 95.4535 204.091 95.4535 206.365C95.4535 208.685 94.6653 210.622 93.1114 212.13C91.535 213.662 89.3056 214.427 86.423 214.427C86.1303 214.427 85.0944 214.405 83.3153 214.382C82.392 214.382 81.6263 213.617 81.6263 212.693ZM85.2295 201.996V211.004C85.5448 211.027 85.9726 211.049 86.5356 211.049C89.6884 211.049 91.6251 209.338 91.6251 206.365C91.6251 203.55 89.5983 201.929 86.5582 201.929C85.9726 201.929 85.5222 201.951 85.2295 201.996ZM103.789 208.144V211.004H108.068C108.991 211.004 109.757 211.77 109.757 212.693C109.757 213.617 108.991 214.382 108.068 214.382H101.875C100.951 214.382 100.186 213.617 100.186 212.693V200.307C100.186 199.384 100.951 198.619 101.875 198.619H107.842C108.766 198.619 109.531 199.384 109.531 200.307C109.531 201.231 108.766 201.996 107.842 201.996H103.789V204.766H107.167C108.09 204.766 108.856 205.532 108.856 206.455C108.856 207.379 108.09 208.144 107.167 208.144H103.789ZM118.544 200.082V211.004H123.273C124.196 211.004 124.962 211.77 124.962 212.693C124.962 213.617 124.196 214.382 123.273 214.382H116.63C115.706 214.382 114.941 213.617 114.941 212.693V200.082C114.941 199.159 115.729 198.393 116.742 198.393C117.756 198.393 118.544 199.159 118.544 200.082ZM138.927 200.082V211.004H143.656C144.579 211.004 145.345 211.77 145.345 212.693C145.345 213.617 144.579 214.382 143.656 214.382H137.013C136.089 214.382 135.324 213.617 135.324 212.693V200.082C135.324 199.159 136.112 198.393 137.125 198.393C138.139 198.393 138.927 199.159 138.927 200.082ZM149.622 212.919V200.082C149.622 199.159 150.41 198.393 151.423 198.393C152.437 198.393 153.225 199.159 153.225 200.082V212.919C153.225 213.842 152.437 214.608 151.423 214.608C150.41 214.608 149.622 213.842 149.622 212.919ZM164.087 198.528C167.668 198.528 169.38 200.105 169.38 202.447C169.38 204.001 168.772 205.172 167.578 205.982C168.862 206.5 169.83 207.716 169.83 209.608C169.83 211.207 169.29 212.401 168.186 213.234C167.083 214.067 165.619 214.472 163.84 214.472C163.187 214.472 162.241 214.45 161.002 214.427C160.101 214.405 159.313 213.572 159.313 212.693V200.33C159.313 199.407 160.079 198.619 161.002 198.596C161.971 198.551 162.984 198.528 164.087 198.528ZM164.313 208.009H162.916V210.959C163.254 211.049 163.66 211.094 164.133 211.094C165.529 211.094 166.227 210.531 166.227 209.428C166.227 208.482 165.596 208.009 164.313 208.009ZM162.916 201.996V204.856H164.11C165.213 204.856 165.776 204.339 165.776 203.325C165.776 202.424 165.011 201.906 164.042 201.906C163.84 201.906 163.457 201.929 162.916 201.996ZM183.549 208.167L186.071 211.545C187.152 212.828 186.364 214.675 184.922 214.608C184.247 214.608 183.661 214.247 183.143 213.504L179.946 208.865H178.617V212.919C178.617 213.842 177.829 214.608 176.815 214.608C175.802 214.608 175.014 213.842 175.014 212.919V200.307C175.014 199.384 175.779 198.619 176.703 198.596C177.986 198.596 180.283 198.573 180.373 198.573C184.45 198.573 186.206 200.488 186.206 203.618C186.206 205.757 185.328 207.289 183.549 208.167ZM178.617 201.996V205.487H179.923C181.567 205.487 182.378 204.879 182.378 203.663C182.378 202.514 181.657 201.951 180.193 201.951C180.126 201.951 179.608 201.974 178.617 201.996ZM198.273 214.653C195.819 214.653 193.815 213.909 192.261 212.423C190.684 210.937 189.896 208.955 189.896 206.5C189.896 204.181 190.684 202.222 192.238 200.668C193.792 199.114 195.796 198.348 198.273 198.348C200.728 198.348 202.732 199.091 204.309 200.578C205.863 202.064 206.651 204.046 206.651 206.5C206.651 208.865 205.863 210.824 204.286 212.356C202.687 213.887 200.683 214.653 198.273 214.653ZM198.273 201.726C196.945 201.726 195.864 202.154 195.008 203.032C194.152 203.911 193.725 205.082 193.725 206.5C193.725 207.852 194.175 208.978 195.053 209.901C195.931 210.824 197.012 211.275 198.273 211.275C199.715 211.275 200.841 210.824 201.629 209.923C202.417 209.045 202.822 207.897 202.822 206.5C202.822 205.082 202.395 203.933 201.516 203.055C200.638 202.177 199.557 201.726 198.273 201.726Z" fill="white"/>
<path d="M165.998 0C127.013 11.4498 110.4 38.1661 106.966 50.093C98.0917 21.4684 64.1784 4.77076 48.3311 0V81.5005C87.3155 93.2684 103.665 120.064 106.966 131.991C120.595 99.868 151.999 84.9461 165.998 81.5005V0Z" fill="#FF0000"/>
<path d="M185.438 96.1236C148.083 102.459 122.125 121.993 113.815 130.968C129.643 99.2913 159.453 87.6765 172.38 85.8287V18.9115L185.438 15.3479V96.1236Z" fill="#DCA407"/>
<path d="M27.8672 96.1236C65.222 102.459 91.1804 121.993 99.4902 130.968C83.6619 99.2913 53.852 87.6765 40.9255 85.8287V18.9115L27.8672 15.3479V96.1236Z" fill="#DCA407"/>
<path d="M207.948 111.551C194.878 109.961 130.318 124.005 122 133.014C136.259 111.551 179.959 101.482 192.897 99.627V32.4548L207.948 29.6725V111.551Z" fill="#66CC66"/>
<path d="M5.357 111.551C18.4274 109.961 82.9872 124.005 91.3047 133.014C77.0461 111.551 33.3461 101.482 20.4078 99.627V32.4548L5.357 29.6725V111.551Z" fill="#66CC66"/>
<rect x="203.855" y="177.57" width="11.4213" height="49.9886" rx="5.71064" transform="rotate(135 203.855 177.57)" fill="#DCA407"/>
<rect x="113.195" y="142.223" width="11.4213" height="49.9886" rx="5.71064" transform="rotate(45 113.195 142.223)" fill="#FFCC00"/>
<circle cx="141.441" cy="163.71" r="19.4405" fill="#B5FFCC"/>
<rect x="0.241211" y="144.269" width="11.2551" height="38.8811" rx="5.62753" fill="#FD402E"/>
<rect opacity="0.8" x="39.1226" y="171.895" width="11.2551" height="38.8811" rx="5.62753" transform="rotate(90 39.1226 171.895)" fill="#B5FFCC"/>
<rect opacity="0.8" x="118.931" y="144.269" width="11.2551" height="39.9043" rx="5.62753" transform="rotate(90 118.931 144.269)" fill="#FD402E"/>
<rect opacity="0.8" x="119.954" y="171.895" width="11.2551" height="39.9043" rx="5.62753" transform="rotate(90 119.954 171.895)" fill="#04CD60"/>
<rect opacity="0.8" x="195.779" y="142.223" width="11.4213" height="49.9886" rx="5.71064" transform="rotate(45 195.779 142.223)" fill="#FFDA27"/>
<rect x="56.9731" y="143.086" width="11.4213" height="41.3116" rx="5.71064" transform="rotate(24.1532 56.9731 143.086)" fill="#66CC66"/>
<rect opacity="0.9" x="52.3691" y="147.691" width="11.4213" height="41.3116" rx="5.71064" transform="rotate(-25.3954 52.3691 147.691)" fill="#488D46"/>
<ellipse cx="141.952" cy="163.71" rx="6.65071" ry="6.13912" fill="#04CD60"/>
</svg>
