<svg width="486" height="461" viewBox="0 0 486 461" fill="none" xmlns="http://www.w3.org/2000/svg">
<mask id="path-1-inside-1_16_113" fill="white">
<path fill-rule="evenodd" clip-rule="evenodd" d="M228.89 80.8614C228.89 80.8924 228.89 80.9234 228.89 80.9544V88.3618C228.89 88.3928 228.89 88.4238 228.89 88.4548V235.797C228.89 253.196 214.786 267.3 197.388 267.3H84.8057C67.4073 267.3 53.3031 253.196 53.3031 235.797V76.9672C53.3031 74.7311 53.5361 72.5496 53.9791 70.4453C59.1311 30.7003 93.1091 0 134.258 0H147.936C189.085 0 223.063 30.7009 228.215 70.4465C228.657 72.5504 228.89 74.7316 228.89 76.9672V80.8614Z"/>
</mask>
<path fill-rule="evenodd" clip-rule="evenodd" d="M228.89 80.8614C228.89 80.8924 228.89 80.9234 228.89 80.9544V88.3618C228.89 88.3928 228.89 88.4238 228.89 88.4548V235.797C228.89 253.196 214.786 267.3 197.388 267.3H84.8057C67.4073 267.3 53.3031 253.196 53.3031 235.797V76.9672C53.3031 74.7311 53.5361 72.5496 53.9791 70.4453C59.1311 30.7003 93.1091 0 134.258 0H147.936C189.085 0 223.063 30.7009 228.215 70.4465C228.657 72.5504 228.89 74.7316 228.89 76.9672V80.8614Z" fill="#CCFFCA"/>
<path d="M228.89 80.8614L225.96 80.8647V80.8614H228.89ZM228.89 88.4548L225.96 88.4548L225.96 88.4515L228.89 88.4548ZM53.9791 70.4453L56.8852 70.822L56.8704 70.9363L56.8467 71.049L53.9791 70.4453ZM228.215 70.4465L225.347 71.05L225.323 70.9373L225.308 70.8231L228.215 70.4465ZM225.96 80.9544C225.96 80.9245 225.96 80.8946 225.96 80.8647L231.821 80.8581C231.821 80.8902 231.821 80.9223 231.821 80.9544H225.96ZM225.96 88.3618V80.9544H231.821V88.3618H225.96ZM225.96 88.4515C225.96 88.4216 225.96 88.3917 225.96 88.3618H231.821C231.821 88.3939 231.821 88.426 231.821 88.4581L225.96 88.4515ZM225.96 235.797V88.4548H231.821V235.797H225.96ZM197.388 264.37C213.168 264.37 225.96 251.577 225.96 235.797H231.821C231.821 254.814 216.404 270.23 197.388 270.23V264.37ZM84.8057 264.37H197.388V270.23H84.8057V264.37ZM56.2336 235.797C56.2336 251.577 69.0258 264.37 84.8057 264.37V270.23C65.7889 270.23 50.3727 254.814 50.3727 235.797H56.2336ZM56.2336 76.9672V235.797H50.3727V76.9672H56.2336ZM56.8467 71.049C56.4452 72.9559 56.2336 74.9352 56.2336 76.9672H50.3727C50.3727 74.5271 50.6269 72.1432 51.1114 69.8416L56.8467 71.049ZM134.258 2.93048C94.601 2.93048 61.8504 32.5187 56.8852 70.822L51.0729 70.0686C56.4118 28.8819 91.6173 -2.93048 134.258 -2.93048V2.93048ZM147.936 2.93048H134.258V-2.93048H147.936V2.93048ZM225.308 70.8231C220.344 32.5193 187.593 2.93048 147.936 2.93048V-2.93048C190.577 -2.93048 225.782 28.8825 231.121 70.0698L225.308 70.8231ZM225.96 76.9672C225.96 74.9356 225.748 72.9566 225.347 71.05L231.082 69.8429C231.567 72.1441 231.821 74.5275 231.821 76.9672H225.96ZM225.96 80.8614V76.9672H231.821V80.8614H225.96Z" fill="black" mask="url(#path-1-inside-1_16_113)"/>
<path fill-rule="evenodd" clip-rule="evenodd" d="M108.174 87.0538C105.144 87.0538 102.687 84.5971 102.687 81.5667C102.687 80.8421 102.827 80.1503 103.083 79.517C102.819 79.674 102.561 79.8484 102.312 80.0413C100.459 81.4772 98.9346 84.0656 99.0822 88.6384C99.1017 89.245 98.6258 89.7526 98.0192 89.7722C97.4126 89.7917 96.905 89.3159 96.8854 88.7093C96.7194 83.5621 98.4608 80.2454 100.965 78.3042C103.031 76.7031 105.503 76.1257 107.565 76.113C107.765 76.0909 107.968 76.0796 108.174 76.0796C111.205 76.0796 113.661 78.5362 113.661 81.5667C113.661 84.5971 111.205 87.0538 108.174 87.0538Z" fill="black"/>
<path fill-rule="evenodd" clip-rule="evenodd" d="M173.235 76.0792C170.205 76.0792 167.748 73.6225 167.748 70.5921C167.748 69.8675 167.889 69.1756 168.144 68.5424C167.88 68.6994 167.622 68.8738 167.373 69.0667C165.521 70.5026 163.996 73.0909 164.143 77.6638C164.163 78.2704 163.687 78.778 163.081 78.7976C162.474 78.8171 161.966 78.3412 161.947 77.7346C161.781 72.5875 163.522 69.2708 166.027 67.3296C168.092 65.7285 170.564 65.1511 172.627 65.1383C172.827 65.1163 173.03 65.105 173.235 65.105C176.266 65.105 178.723 67.5616 178.723 70.5921C178.723 73.6225 176.266 76.0792 173.235 76.0792Z" fill="black"/>
<path d="M104.647 62.3176C103.21 62.3176 99.8652 63.1799 97.9839 66.6289" stroke="black" stroke-width="2.19786" stroke-linecap="round"/>
<path d="M178.723 52.762C177.76 51.6952 174.879 49.7902 171.058 50.7046" stroke="black" stroke-width="2.19786" stroke-linecap="round"/>
<ellipse cx="10.1903" cy="8.23065" rx="10.1903" ry="8.23065" transform="matrix(-1 0 0 1 101.119 90.145)" fill="#E7A3BA"/>
<ellipse cx="10.1903" cy="8.23065" rx="10.1903" ry="8.23065" transform="matrix(-1 0 0 1 202.239 70.5483)" fill="#E7A3BA"/>
<path d="M157.166 82.6982C152.593 88.7079 139.372 98.2973 123.068 88.5773" stroke="black" stroke-width="2.19786" stroke-linecap="round"/>
<path d="M131.255 103.863C136.586 103.549 137.396 96.9387 137.134 93.6726L127.336 91.7129C126.422 95.8935 125.925 104.176 131.255 103.863Z" fill="#E7A3BA"/>
<path d="M131.298 92.4968V99.1597" stroke="black" stroke-width="2.19786" stroke-linecap="round"/>
<path d="M131.298 103.863C136.629 103.549 137.439 96.9387 137.177 93.6726L127.379 91.7129C126.465 95.8935 125.968 104.176 131.298 103.863Z" stroke="black" stroke-width="2.19786" stroke-linecap="round"/>
<path d="M270.394 108.152L133.85 251.027C116.705 268.966 125.41 298.738 149.518 304.616L341.523 351.429C365.632 357.307 387.062 334.883 380.099 311.065L324.638 121.378C317.674 97.5602 287.538 90.2128 270.394 108.152Z" fill="#DF6248" stroke="black" stroke-width="2.93048"/>
<ellipse cx="9.32712" cy="6.27097" rx="9.32712" ry="6.27097" transform="matrix(-0.92151 -0.388355 -0.388355 0.92151 239.553 190.678)" fill="#E7A3BA"/>
<ellipse cx="9.32712" cy="6.27097" rx="9.32712" ry="6.27097" transform="matrix(-0.978613 -0.205708 -0.205708 0.978613 333.929 210.779)" fill="#E7A3BA"/>
<path d="M288.856 196.751C285.329 201.846 277.255 208.509 273.179 194.4" stroke="black" stroke-width="2.19786" stroke-linecap="round"/>
<path d="M242.216 184.993C247.311 172.452 257.11 172.06 255.934 186.953" stroke="black" stroke-width="2.19786" stroke-linecap="round"/>
<path d="M306.004 200.581C311.1 188.039 320.898 187.647 319.722 202.541" stroke="black" stroke-width="2.19786" stroke-linecap="round"/>
<path d="M325.306 183.034C324.914 182.119 322.955 179.977 318.252 178.722" stroke="black" stroke-width="2.19786" stroke-linecap="round"/>
<path d="M254.758 165.649C253.884 165.173 251.019 164.701 246.548 166.625" stroke="black" stroke-width="2.19786" stroke-linecap="round"/>
<circle cx="103.471" cy="103.471" r="102.372" transform="matrix(-1 0 0 1 206.942 192.832)" fill="#E58F90" stroke="black" stroke-width="2.19786"/>
<ellipse cx="10.1903" cy="8.23065" rx="10.1903" ry="8.23065" transform="matrix(-1 0 0 1 172.452 250.838)" fill="#E7A3BA"/>
<ellipse cx="10.1903" cy="8.23065" rx="10.1903" ry="8.23065" transform="matrix(-1 0 0 1 67.413 240.648)" fill="#E7A3BA"/>
<path fill-rule="evenodd" clip-rule="evenodd" d="M75.2517 245.351C70.9225 245.351 67.413 241.841 67.413 237.512C67.413 233.183 70.9225 229.674 75.2517 229.674C79.5809 229.674 83.0904 233.183 83.0904 237.512C83.0904 241.841 79.5809 245.351 75.2517 245.351ZM73.684 236.728C72.8181 236.728 72.1162 235.675 72.1162 234.377C72.1162 233.078 72.8181 232.025 73.684 232.025C74.5498 232.025 75.2517 233.078 75.2517 234.377C75.2517 235.675 74.5498 236.728 73.684 236.728Z" fill="#1B1414"/>
<path fill-rule="evenodd" clip-rule="evenodd" d="M146.584 250.838C142.255 250.838 138.745 247.329 138.745 243C138.745 238.67 142.255 235.161 146.584 235.161C150.913 235.161 154.423 238.67 154.423 243C154.423 247.329 150.913 250.838 146.584 250.838ZM145.016 242.216C144.151 242.216 143.449 241.163 143.449 239.864C143.449 238.565 144.151 237.512 145.016 237.512C145.882 237.512 146.584 238.565 146.584 239.864C146.584 241.163 145.882 242.216 145.016 242.216Z" fill="#1B1414"/>
<path d="M114.445 252.014C110.657 252.537 101.982 252.014 97.5921 245.743" stroke="black" stroke-width="2.19786" stroke-linecap="round"/>
<path d="M100.728 242.608C98.768 244.045 94.7703 247.154 94.4567 248.095" stroke="black" stroke-width="2.19786" stroke-linecap="round"/>
</svg>
