<svg id="Capa_1" data-name="Capa 1" xmlns="http://www.w3.org/2000/svg" viewBox="0 0 179 237"><defs><style>.cls-1{fill:#f4d841;}.cls-2{fill:#1d1d1b;}.cls-3{fill:#0e0b0c;}.cls-4{fill:#e7a2b9;}</style></defs><rect class="cls-1" x="20.94" y="17.44" width="136.32" height="211.96" rx="68.16"/><path class="cls-2" d="M89.1,231.13a69.86,69.86,0,0,1-69.9-69.9V85.6a69.9,69.9,0,1,1,139.8,0v75.63a69.83,69.83,0,0,1-69.9,69.9Zm0-212A66.5,66.5,0,0,0,22.68,85.6v75.63A66.5,66.5,0,0,0,89.1,227.66h0a66.5,66.5,0,0,0,66.42-66.43V85.6A66.5,66.5,0,0,0,89.1,19.17Z"/><ellipse class="cls-3" cx="88.77" cy="99.93" rx="9.39" ry="7.75" transform="translate(-17.93 180.43) rotate(-85.41)"/><path d="M56.19,56.14a1.1,1.1,0,0,1-.56-.16,1.07,1.07,0,0,1-.35-1.47c.62-1,2.65-2.6,6.53-2.35a1.06,1.06,0,0,1-.06,2.12h-.07c-2.94-.2-4.34.94-4.59,1.36A1.08,1.08,0,0,1,56.19,56.14Z"/><path d="M124,56.64a1.07,1.07,0,0,1-.84-.41c-1.48-1.94-2.91-1.74-2.91-1.74a1,1,0,0,1-1.27-.8,1.06,1.06,0,0,1,.81-1.26c1-.21,3.18.06,5,2.51a1.05,1.05,0,0,1-.84,1.7Z"/><path class="cls-4" d="M88,101.59a4,4,0,0,0-4.24,2.92c.36.88,1.49,2.7,3.18,2.91a4.05,4.05,0,0,0,3.44-1.32C90.72,104.68,90.73,101.81,88,101.59Z"/><ellipse class="cls-4" cx="132.74" cy="84.18" rx="9.01" ry="6.36"/><ellipse class="cls-4" cx="45.34" cy="84.22" rx="9.01" ry="6.36"/><path d="M55,58.38l1-.33a14.59,14.59,0,0,1,4.25-.69,14.91,14.91,0,0,1,6.44,1.33,13.15,13.15,0,0,1,4.81,3.53,11.31,11.31,0,0,1,2,11.74,10.06,10.06,0,0,1-3.14,4.42A8.59,8.59,0,0,1,67.45,80a8.81,8.81,0,0,1-4.47.25,8.34,8.34,0,0,1-5.12-3.1,7,7,0,0,1,.62-9.22,5.45,5.45,0,0,1,5.33-1.44,5.22,5.22,0,0,1,3,1.9,4.62,4.62,0,0,1-.15,5.79,1.66,1.66,0,0,1-2.31.22A1.63,1.63,0,0,1,64,72.12a1.54,1.54,0,0,0,.38-1,1.32,1.32,0,0,0-.51-1,2.38,2.38,0,0,0-3.28.32,3.78,3.78,0,0,0,.58,5.42,5.61,5.61,0,0,0,5.16,1,5.54,5.54,0,0,0,2.81-1.9,8.28,8.28,0,0,0,1.4-7.89A8.85,8.85,0,0,0,66,62a11.7,11.7,0,0,0-14.27,2.61,1.75,1.75,0,0,1-1.29.67,1.64,1.64,0,0,1-1.29-2.74,14.26,14.26,0,0,1,4-3.28l.17-.13Z"/><path d="M105.78,58.38l1-.33a14.53,14.53,0,0,1,4.24-.69,14.88,14.88,0,0,1,6.44,1.33,13.15,13.15,0,0,1,4.81,3.53,11.34,11.34,0,0,1,2,11.74,10.22,10.22,0,0,1-3.14,4.42A8.68,8.68,0,0,1,118.23,80a8.85,8.85,0,0,1-4.48.25,8.34,8.34,0,0,1-5.12-3.1,7,7,0,0,1,.62-9.22,5.45,5.45,0,0,1,5.33-1.44,5.24,5.24,0,0,1,3,1.9,4.65,4.65,0,0,1-.15,5.79,1.67,1.67,0,0,1-2.32.22,1.63,1.63,0,0,1-.29-2.24,1.6,1.6,0,0,0,.39-1,1.36,1.36,0,0,0-.52-1,2.37,2.37,0,0,0-3.27.32,3.77,3.77,0,0,0,.57,5.42,5.61,5.61,0,0,0,5.16,1,5.49,5.49,0,0,0,2.81-1.9A8.09,8.09,0,0,0,121.78,70a8.17,8.17,0,0,0-.44-3,8.85,8.85,0,0,0-4.57-5,11.7,11.7,0,0,0-14.27,2.61,1.74,1.74,0,0,1-1.29.67,1.65,1.65,0,0,1-1.29-2.74,14.26,14.26,0,0,1,4-3.28l.17-.13Z"/></svg>